<svg width="30" height="24" viewBox="0 0 30 24" fill="none" xmlns="http://www.w3.org/2000/svg">
<path d="M15 2V22C15 23.1 14.228 23.537 13.285 22.971L6.715 19.029C5.772 18.463 4.1 18 3 18H2C0.9 18 0 17.1 0 16V8C0 6.9 0.9 6 2 6H3C4.1 6 5.772 5.537 6.715 4.971L13.285 1.029C14.228 0.462997 15 0.899997 15 2ZM25.606 1.394C24.825 0.612997 23.559 0.612997 22.778 1.394C21.997 2.175 21.997 3.441 22.778 4.222C24.855 6.3 26 9.062 26 12C26 14.938 24.855 17.7 22.778 19.778C21.997 20.559 21.997 21.825 22.778 22.606C23.169 22.997 23.68 23.192 24.192 23.192C24.704 23.192 25.215 22.997 25.606 22.606C28.439 19.773 30 16.007 30 12C30 7.993 28.439 4.227 25.606 1.394ZM21.363 5.636C20.582 4.855 19.316 4.855 18.535 5.636C17.754 6.417 17.754 7.683 18.535 8.464C19.479 9.409 20 10.664 20 12C20 13.336 19.48 14.591 18.536 15.535C17.755 16.316 17.755 17.582 18.536 18.363C18.927 18.754 19.438 18.949 19.95 18.949C20.462 18.949 20.973 18.754 21.364 18.363C23.064 16.664 24 14.404 24 12C24 9.596 23.063 7.336 21.363 5.636Z" fill="#C77DFF"/>
</svg>
